<?xml version="1.0" standalone="no"?>
<!DOCTYPE svg PUBLIC "-//W3C//DTD SVG 20010904//EN"
 "http://www.w3.org/TR/2001/REC-SVG-20010904/DTD/svg10.dtd">
<svg version="1.0" xmlns="http://www.w3.org/2000/svg"
 width="700.000000pt" height="700.000000pt" viewBox="0 0 700.000000 700.000000"
 preserveAspectRatio="xMidYMid meet">
<metadata>
Created by potrace 1.11, written by Peter Selinger 2001-2013
</metadata>
<g transform="translate(0.000000,700.000000) scale(0.100000,-0.100000)"
fill="#000000" stroke="none">
<path d="M391 5345 c-91 -28 -163 -142 -147 -230 14 -71 1167 -3241 1199
-3294 64 -107 179 -181 315 -201 103 -16 337 -10 355 10 8 8 225 609 482 1335
573 1620 513 1457 538 1453 13 -2 25 -16 32 -38 15 -43 59 91 -494 -1479 -292
-826 -430 -1232 -426 -1248 3 -14 16 -26 33 -30 15 -4 128 -8 252 -8 214 0
227 1 275 23 55 25 96 61 125 107 10 17 129 352 264 745 134 393 262 764 282
823 l38 108 19 -48 c10 -26 140 -378 288 -782 148 -404 280 -753 293 -776 34
-57 117 -132 179 -160 72 -33 176 -47 322 -43 94 2 128 7 139 18 11 12 1168
3196 1301 3579 38 110 34 137 -20 147 -18 3 -127 4 -241 2 -204 -3 -210 -4
-260 -30 -52 -27 -93 -68 -119 -117 -12 -24 -267 -715 -770 -2086 -199 -541
-193 -531 -243 -393 -16 46 -152 428 -301 849 l-272 766 15 37 c21 51 45 45
69 -19 10 -28 129 -367 264 -755 135 -388 251 -712 259 -720 12 -12 16 -12 29
1 20 20 315 813 315 847 0 34 -527 1434 -563 1495 -33 56 -102 102 -174 117
-34 7 -128 11 -247 8 l-193 -3 -41 -29 c-23 -15 -44 -37 -47 -47 -5 -16 -11
-14 -43 20 -54 57 -89 63 -341 59 -202 -3 -219 -5 -263 -27 -51 -25 -112 -86
-130 -129 -11 -29 -395 -1105 -703 -1972 -106 -300 -197 -553 -200 -563 -5
-11 -16 -17 -28 -15 -16 3 -100 215 -517 1314 -274 721 -505 1327 -514 1346
-10 20 -27 39 -39 42 -44 12 -301 5 -346 -9z"/>
<path d="M920 5348 c-49 -26 -107 146 540 -1583 177 -473 328 -867 336 -875
12 -13 16 -13 28 0 24 26 279 771 278 815 0 27 -86 272 -266 757 -146 394
-274 734 -285 755 -26 51 -66 87 -126 115 -46 21 -66 23 -265 26 -163 2 -221
0 -240 -10z"/>
<path d="M6218 5348 c-26 -20 -1341 -3664 -1334 -3694 10 -40 46 -47 216 -41
115 4 171 10 216 25 134 42 240 144 293 282 16 41 280 768 587 1615 539 1486
559 1542 559 1611 0 60 -4 76 -27 112 -15 22 -49 54 -75 69 -47 28 -51 28
-233 31 -141 3 -189 0 -202 -10z"/>
</g>
</svg>
