<?xml version="1.0" encoding="UTF-8" standalone="no"?>
<svg width="260px" height="260px" viewBox="0 0 260 260" version="1.1" xmlns="http://www.w3.org/2000/svg" xmlns:xlink="http://www.w3.org/1999/xlink">
    <!-- Generator: Sketch 48.1 (47250) - http://www.bohemiancoding.com/sketch -->
    <title>Desktop Copy</title>
    <desc>Created with Sketch.</desc>
    <defs>
        <filter x="-4.1%" y="-5.8%" width="108.2%" height="114.4%" filterUnits="objectBoundingBox" id="filter-1">
            <feOffset dx="0" dy="2" in="SourceAlpha" result="shadowOffsetOuter1"></feOffset>
            <feGaussianBlur stdDeviation="3" in="shadowOffsetOuter1" result="shadowBlurOuter1"></feGaussianBlur>
            <feColorMatrix values="0 0 0 0 0   0 0 0 0 0   0 0 0 0 0  0 0 0 0.35 0" type="matrix" in="shadowBlurOuter1" result="shadowMatrixOuter1"></feColorMatrix>
            <feMerge>
                <feMergeNode in="shadowMatrixOuter1"></feMergeNode>
                <feMergeNode in="SourceGraphic"></feMergeNode>
            </feMerge>
        </filter>
        <linearGradient x1="100%" y1="50%" x2="0%" y2="50%" id="linearGradient-2">
            <stop stop-color="#009B90" offset="0%"></stop>
            <stop stop-color="#007AD5" offset="48.4235491%"></stop>
            <stop stop-color="#5A00F0" stop-opacity="0.85" offset="100%"></stop>
        </linearGradient>
    </defs>
    <g id="Page-1" stroke="none" stroke-width="1" fill="none" fill-rule="evenodd">
        <g id="Desktop-Copy">
            <rect id="Rectangle" fill="#FFFFFF" x="0" y="0" width="260" height="260" rx="15"></rect>
            <g id="W-logo" filter="url(#filter-1)" transform="translate(9.000000, 61.000000)">
                <path d="M0.485445686,10.6394964 L43.0732628,128.360504 C45.3833266,134.745969 51.4461544,139 58.2366304,139 L68.1377667,139 C68.9848321,139 69.7400299,138.466381 70.0229297,137.667953 L106.338223,35.175277 C106.522673,34.6547036 107.094208,34.3822218 107.614781,34.5666718 C107.895591,34.6661686 108.117416,34.8856872 108.219843,35.1654416 L142.563065,128.965665 C144.769643,134.9924 150.504722,139 156.922706,139 L166.205143,139 C167.047366,139 167.799338,138.472373 168.085855,137.680383 L216.924677,2.68038347 C217.300443,1.6416948 216.763037,0.495053222 215.724349,0.11928781 C215.506189,0.0403645117 215.275962,-1.3748847e-15 215.043965,-1.33226763e-15 L200.988874,-5.32907052e-15 C196.795599,-4.55877841e-15 193.04768,2.61616664 191.601984,6.55234739 L157.248762,100.085522 C157.058354,100.603945 156.483732,100.869854 155.965308,100.679445 C155.686202,100.576934 155.467188,100.355536 155.367706,100.075336 L121.254366,3.99252493 C120.404606,1.59911112 118.139948,6.08877079e-15 115.60016,1.33226763e-14 L101.755066,1.59872116e-14 C97.5220865,1.67647973e-14 93.7476565,2.6651852 92.3313896,6.65420822 L59.1477061,100.118571 C58.9629231,100.639026 58.3912146,100.911142 57.8707593,100.726359 C57.5940999,100.628134 57.374579,100.413299 57.270408,100.138823 L19.7547769,1.29033801 C19.4599869,0.513607071 18.7157061,1.1694283e-14 17.884916,1.33226763e-14 L7.95073224,5.32907052e-15 C3.56626136,6.13448475e-15 0.0119454393,3.55431592 0.0119454393,7.9387868 C0.0119454393,8.85967226 0.172168066,9.77353618 0.485445686,10.6394964 Z" id="W" fill="#445566"></path>
                <path d="M24.4306272,10.7211763 C24.1150189,9.84864399 23.9536053,8.92785837 23.9536053,8 C23.9536053,3.581722 27.5353273,-9.64732338e-16 31.9536053,-1.77635684e-15 L43.0314796,8.8817842e-16 C43.8737371,-7.62691567e-16 44.6257327,0.527670377 44.9122241,1.31970593 L93.7437894,136.319706 C93.8226914,136.537839 93.8630448,136.768035 93.8630448,137 C93.8630448,138.104569 92.9676143,139 91.8630448,139 L82.7721664,139 C75.6055725,139 69.2069972,134.510162 66.7693015,127.770896 L24.4306272,10.7211763 Z M197.022597,60.0165773 L216.740765,6.54040959 C218.189855,2.6104424 221.934645,5.68434189e-14 226.123261,5.68434189e-14 L240.14936,5.68434189e-14 C241.25393,5.68434189e-14 242.14936,0.8954305 242.14936,2 C242.14936,2.23966896 242.106282,2.47738668 242.02218,2.70181512 L208.811696,91.3252493 C208.617895,91.8424144 208.041544,92.1045528 207.524379,91.9107519 C207.245884,91.8063896 207.028292,91.5834821 206.930681,91.30255 L196.997174,62.7132463 C196.693243,61.8385132 196.702228,60.8854248 197.022597,60.0165773 Z M117.414423,6.47719922 C118.881291,2.58020428 122.609445,2.65366858e-14 126.77337,4.79616347e-14 L139.488592,1.09245946e-13 C142.033015,1.24597854e-13 144.300749,1.60486309 145.147011,4.00443166 L191.816285,136.334811 C191.891644,136.54849 191.930146,136.773421 191.930146,137 C191.930146,138.104569 191.034715,139 189.930146,139 L174.762557,139 C170.488381,139 166.686723,136.283508 165.301943,132.239875 L132.103298,35.2979967 C132.003774,35.0073823 131.776205,34.7786338 131.486109,34.6776097 C130.964545,34.4959787 130.394493,34.7715486 130.212862,35.2931122 L110.710458,91.2953578 C110.61243,91.5768517 110.393938,91.7999411 110.114546,91.9038087 C109.596876,92.096259 109.021211,91.8326169 108.828761,91.3149477 L97.7486311,61.5106608 C97.4123978,60.6062313 97.4144269,59.610744 97.7543444,58.7076927 L117.414423,6.47719922 Z" id="W-gradient" fill="url(#linearGradient-2)" transform="translate(133.051483, 69.500000) scale(-1, 1) translate(-133.051483, -69.500000) "></path>
            </g>
        </g>
    </g>
</svg>