<?xml version="1.0" encoding="UTF-8" standalone="no"?>
<svg width="204px" height="121px" viewBox="0 0 204 121" version="1.1" xmlns="http://www.w3.org/2000/svg" xmlns:xlink="http://www.w3.org/1999/xlink">
    <!-- Generator: Sketch 48.1 (47250) - http://www.bohemiancoding.com/sketch -->
    <title>W logo</title>
    <desc>Created with Sketch.</desc>
    <defs>
        <filter x="-5.2%" y="-7.2%" width="110.3%" height="118.0%" filterUnits="objectBoundingBox" id="filter-1">
            <feOffset dx="0" dy="2" in="SourceAlpha" result="shadowOffsetOuter1"></feOffset>
            <feGaussianBlur stdDeviation="3" in="shadowOffsetOuter1" result="shadowBlurOuter1"></feGaussianBlur>
            <feColorMatrix values="0 0 0 0 0   0 0 0 0 0   0 0 0 0 0  0 0 0 0.35 0" type="matrix" in="shadowBlurOuter1" result="shadowMatrixOuter1"></feColorMatrix>
            <feMerge>
                <feMergeNode in="shadowMatrixOuter1"></feMergeNode>
                <feMergeNode in="SourceGraphic"></feMergeNode>
            </feMerge>
        </filter>
        <linearGradient x1="100%" y1="50%" x2="0%" y2="50%" id="linearGradient-2">
            <stop stop-color="#009B90" offset="0%"></stop>
            <stop stop-color="#007AD5" offset="48.4235491%"></stop>
            <stop stop-color="#5A00F0" stop-opacity="0.85" offset="100%"></stop>
        </linearGradient>
    </defs>
    <g id="Desktop" stroke="none" stroke-width="1" fill="none" fill-rule="evenodd" transform="translate(-20.000000, 0.000000)">
        <g id="W-logo" filter="url(#filter-1)" transform="translate(25.000000, 2.000000)">
            <path d="M1.05117617,8.46701388 L34.9488238,102.532986 C36.7795959,107.613379 41.5998041,111 47,111 L54.5849698,111 C55.4329354,111 56.1887305,110.465264 56.4709505,109.66564 L85.0724401,28.6280864 C85.2562516,28.1072872 85.8274514,27.8341047 86.3482505,28.0179162 C86.6300021,28.1173579 86.8525278,28.3375763 86.9549007,28.6182762 L114.087642,103.014502 C115.836414,107.809523 120.396038,111 125.5,111 L132.594824,111 C133.43796,111 134.190543,110.471244 134.476382,109.678039 L173.034941,2.67803915 C173.409412,1.63888301 172.870577,0.492912043 171.831421,0.118441361 C171.613951,0.0400737859 171.384542,-6.70380145e-15 171.153382,-6.66133815e-15 L161.989698,-5.32907052e-15 C157.791804,-1.57433653e-14 154.040788,2.62184693 152.598469,6.56418469 L125.955072,79.3894709 C125.765317,79.9081341 125.19103,80.174767 124.672367,79.9850122 C124.392314,79.8825536 124.1726,79.6604543 124.073171,79.3793108 L97.4144472,3.99947132 C96.5667258,1.60246594 94.300272,1.5189296e-14 91.7577799,8.8817842e-15 L83.0703669,3.55271368e-15 C78.83288,4.3311274e-15 75.0554571,2.67077657 73.642588,6.66578553 L47.9114715,79.4227358 C47.7273279,79.9434176 47.155954,80.2162358 46.6352722,80.0320922 C46.3576616,79.9339129 46.1374331,79.7183713 46.0333053,79.4429367 L16.4887245,1.29275522 C16.1946043,0.514759692 15.4496834,2.91301897e-16 14.617948,4.4408921e-16 L7,-2.66453526e-15 C3.50774139,-2.02301776e-15 0.676706423,2.83103497 0.676706423,6.32329358 C0.676706423,7.05413808 0.803405579,7.77945048 1.05117617,8.46701388 Z" id="W" fill="#445566"></path>
            <path d="M20.2767731,8.93740354 C20.0152375,8.21164218 19.8814995,7.44603464 19.8814995,6.67458766 C19.8814995,2.98831469 22.8698142,-2.11021059e-16 26.5560871,-8.8817842e-16 L34.6509108,0 C35.4940472,-1.54881642e-16 36.2466297,0.528755571 36.5324694,1.32196085 L75.091028,108.321961 C75.1693956,108.539431 75.2094693,108.768841 75.2094693,109 C75.2094693,110.104569 74.3140388,111 73.2094693,111 L66.5560871,111 C60.8558804,111 55.7678828,107.425233 53.8354012,102.062596 L20.2767731,8.93740354 Z M157.548093,47.6606502 L172.649294,6.55182537 C174.095138,2.61591624 177.842921,5.68434189e-14 182.035992,5.68434189e-14 L191.174588,4.26325641e-14 C192.279157,4.26325641e-14 193.174588,0.8954305 193.174588,2 C193.174588,2.23884139 193.131806,2.4757518 193.048271,2.69950833 L167.028478,72.3953818 C166.835314,72.9127851 166.259286,73.175633 165.741882,72.9824691 C165.462475,72.8781569 165.244209,72.654575 165.14665,72.3727382 L157.522828,50.3483623 C157.220982,49.4763632 157.229908,48.5268208 157.548093,47.6606502 Z M93.6228,6.48876558 C95.086439,2.58572834 98.8176462,2.47370683e-14 102.986092,4.61852778e-14 L110.804626,8.79296636e-14 C113.351638,1.03297192e-13 115.621088,1.6080799 116.465387,4.01108403 L153.120448,108.337028 C153.195294,108.550051 153.233528,108.774211 153.233528,109 C153.233528,110.104569 152.338098,111 151.233528,111 L141.210312,111 C136.931913,111 133.127481,108.278223 131.745983,104.229006 L105.994602,28.750818 C105.89515,28.459321 105.666922,28.2299145 105.375941,28.128962 C104.854167,27.9479381 104.284436,28.2241712 104.103412,28.7459459 L88.9700935,72.365511 C88.8721189,72.6479085 88.652954,72.8716713 88.3726513,72.9754871 C87.8547469,73.1673035 87.2794046,72.902957 87.0875881,72.3850527 L78.5738404,49.3979337 C78.2398905,48.496269 78.2419063,47.5044823 78.5795187,46.6041825 L93.6228,6.48876558 Z" id="W-gradient" fill="url(#linearGradient-2)" transform="translate(106.528044, 55.500000) scale(-1, 1) translate(-106.528044, -55.500000) "></path>
        </g>
    </g>
</svg>